<svg width="18" height="14" viewBox="0 0 18 14" fill="none" xmlns="http://www.w3.org/2000/svg">
<path d="M16.5 0.25H1.5C0.6825 0.28 0.03 0.9325 0 1.75V12.25C0.03 13.0675 0.6825 13.72 1.5 13.75H16.5C17.3175 13.72 17.97 13.0675 18 12.25V1.75C17.9862 1.35657 17.8237 0.983007 17.5454 0.704639C17.267 0.426271 16.8934 0.263804 16.5 0.25ZM16.5 12.25H1.5V1.75H16.5V12.25ZM10.5 10.75V9.8125C10.5 8.5675 7.995 7.9375 6.75 7.9375C5.505 7.9375 3 8.5675 3 9.8125V10.75H10.5ZM6.75 3.25C6.25272 3.25 5.77581 3.44754 5.42417 3.79917C5.07254 4.15081 4.875 4.62772 4.875 5.125C4.875 5.37123 4.9235 5.61505 5.01773 5.84253C5.11195 6.07002 5.25006 6.27672 5.42417 6.45083C5.77581 6.80246 6.25272 7 6.75 7C6.99623 7 7.24005 6.9515 7.46753 6.85727C7.69502 6.76305 7.90172 6.62494 8.07582 6.45083C8.24994 6.27672 8.38805 6.07002 8.48227 5.84253C8.5765 5.61505 8.625 5.37123 8.625 5.125C8.625 4.87877 8.5765 4.63495 8.48227 4.40747C8.38805 4.17998 8.24994 3.97328 8.07582 3.79917C7.90172 3.62506 7.69502 3.48695 7.46753 3.39273C7.24005 3.2985 6.99623 3.25 6.75 3.25ZM10.5 3.25V4H15V3.25H10.5ZM10.5 4.75V5.5H15V4.75H10.5ZM10.5 6.25V7H13.5V6.25H10.5Z" fill="#010C20"/>
</svg>
